# xmcd CD database file
#
# Track frame offsets:
#	150
#	10477
#	22564
#	31780
#	41118
#	53344
#	63335
#	72964
#	82975
#	93388
#	102842
#	116112
#	126554
#	140037
#	152003
#	162286
#	172744
#	183661
#
# Disc length: 2606 seconds
#
# Revision: 1
# Processed by: cddbd v1.5.2PL0 Copyright (c) Steve Scherf et al.
# Submitted via: CDex 1.70beta2
#
DISCID=e50a2c12
DTITLE=Loretta Lynn - 50th Anniversary Collection - CD 1
DYEAR=2010
DGENRE=Country
TTITLE0=I'm A Honky Tonk Girl
TTITLE1=Success
TTITLE2=Wine, Women And Song
TTITLE3=Happy Birthday
TTITLE4=Blue Kentucky Girl
TTITLE5=You Ain't Woman Enough (To Take My Man)
TTITLE6=Don't Come Home A'Drinkin' (With Lovin' On Your Mind)
TTITLE7=Fist City
TTITLE8=You've Just Stepped In (From Stepping Out On Me)
TTITLE9=Your Squaw Is On The Warpath
TTITLE10=Woman Of The World (Leave My Man Alone)
TTITLE11=To Make A Man (Feel Like A Man)
TTITLE12=Coal Miner's Daughter
TTITLE13=After The Fire Is Gone <Duet With Conway Twitty>
TTITLE14=I Wanna Be Free
TTITLE15=You're Looking At Country
TTITLE16=Lead Me On <Duet With Conway Twitty>
TTITLE17=One's On The Way
EXTD=YEAR: 2010
EXTT0=
EXTT1=
EXTT2=
EXTT3=
EXTT4=
EXTT5=
EXTT6=
EXTT7=
EXTT8=
EXTT9=
EXTT10=
EXTT11=
EXTT12=
EXTT13=
EXTT14=
EXTT15=
EXTT16=
EXTT17=
PLAYORDER=
